{
  "accessors": [
    {
      "bufferView": 2,
      "componentType": 5126,
      "count": 12170,
      "max": [
        38.35790252685547,
        132.63455200195313,
        26.33623504638672
      ],
      "min": [
        -31.029409408569336,
        -14.638389587402344,
        -130.85850524902344
      ],
      "type": "VEC3"
    },
    {
      "bufferView": 2,
      "byteOffset": 146040,
      "componentType": 5126,
      "count": 12170,
      "max": [
        1.0,
        1.0,
        1.0
      ],
      "min": [
        -1.0,
        -1.0,
        -1.0
      ],
      "type": "VEC3"
    },
    {
      "bufferView": 3,
      "componentType": 5126,
      "count": 12170,
      "max": [
        1.0,
        1.0,
        1.0,
        1.0
      ],
      "min": [
        -1.0,
        -1.0,
        -1.0,
        -1.0
      ],
      "type": "VEC4"
    },
    {
      "bufferView": 1,
      "componentType": 5126,
      "count": 12170,
      "max": [
        0.9954966306686401,
        0.9897938966751099
      ],
      "min": [
        0.0040254145860672,
        0.004019260406494141
      ],
      "type": "VEC2"
    },
    {
      "bufferView": 0,
      "componentType": 5125,
      "count": 44538,
      "type": "SCALAR"
    }
  ],
  "asset": {
    "extras": {
      "author": "carlcapu9 (https://sketchfab.com/carlcapu9)",
      "license": "CC-BY-4.0 (http://creativecommons.org/licenses/by/4.0/)",
      "source": "https://sketchfab.com/3d-models/rowing-boat-4eedc7ec7bac481f957474ecd89f5ba2",
      "title": "Rowing Boat"
    },
    "generator": "Sketchfab-15.37.0",
    "version": "2.0"
  },
  "bufferViews": [
    {
      "buffer": 0,
      "byteLength": 178152,
      "name": "floatBufferViews",
      "target": 34963
    },
    {
      "buffer": 0,
      "byteLength": 97360,
      "byteOffset": 178152,
      "byteStride": 8,
      "name": "floatBufferViews",
      "target": 34962
    },
    {
      "buffer": 0,
      "byteLength": 292080,
      "byteOffset": 275512,
      "byteStride": 12,
      "name": "floatBufferViews",
      "target": 34962
    },
    {
      "buffer": 0,
      "byteLength": 194720,
      "byteOffset": 567592,
      "byteStride": 16,
      "name": "floatBufferViews",
      "target": 34962
    }
  ],
  "buffers": [
    {
      "byteLength": 762312,
      "uri": "scene.bin"
    }
  ],
  "images": [
    {
      "uri": "textures/Boat_baseColor.png"
    },
    {
      "uri": "textures/Boat_metallicRoughness.png"
    },
    {
      "uri": "textures/Boat_normal.png"
    }
  ],
  "materials": [
    {
      "doubleSided": true,
      "name": "Boat",
      "normalTexture": {
        "index": 2
      },
      "pbrMetallicRoughness": {
        "baseColorTexture": {
          "index": 0
        },
        "metallicRoughnessTexture": {
          "index": 1
        }
      }
    }
  ],
  "meshes": [
    {
      "name": "Plane.004_Boat_0",
      "primitives": [
        {
          "attributes": {
            "NORMAL": 1,
            "POSITION": 0,
            "TANGENT": 2,
            "TEXCOORD_0": 3
          },
          "indices": 4,
          "material": 0,
          "mode": 4
        }
      ]
    }
  ],
  "nodes": [
    {
      "children": [
        1
      ],
      "matrix": [
        1.0,
        0.0,
        0.0,
        0.0,
        0.0,
        2.220446049250313e-16,
        -1.0,
        0.0,
        0.0,
        1.0,
        2.220446049250313e-16,
        0.0,
        0.0,
        0.0,
        0.0,
        1.0
      ],
      "name": "Sketchfab_model"
    },
    {
      "children": [
        2
      ],
      "matrix": [
        1.0,
        0.0,
        0.0,
        0.0,
        0.0,
        0.0,
        1.0,
        0.0,
        0.0,
        -1.0,
        0.0,
        0.0,
        0.0,
        0.0,
        0.0,
        1.0
      ],
      "name": "6080dc88ba8f42cd9c75f624eb77b0dd.fbx"
    },
    {
      "children": [
        3
      ],
      "name": "RootNode"
    },
    {
      "children": [
        4
      ],
      "matrix": [
        54.6236457824707,
        0.0,
        0.0,
        0.0,
        0.0,
        54.6236457824707,
        0.0,
        0.0,
        0.0,
        0.0,
        54.6236457824707,
        0.0,
        -76.54957580566406,
        55.16108322143555,
        -551.78271484375,
        1.0
      ],
      "name": "Plane.004"
    },
    {
      "mesh": 0,
      "name": "Plane.004_Boat_0"
    }
  ],
  "samplers": [
    {
      "magFilter": 9729,
      "minFilter": 9987,
      "wrapS": 10497,
      "wrapT": 10497
    }
  ],
  "scene": 0,
  "scenes": [
    {
      "name": "Sketchfab_Scene",
      "nodes": [
        0
      ]
    }
  ],
  "textures": [
    {
      "sampler": 0,
      "source": 0
    },
    {
      "sampler": 0,
      "source": 1
    },
    {
      "sampler": 0,
      "source": 2
    }
  ]
}
