{
	"asset":{
		"generator":"Khronos glTF Blender I/O v4.2.57",
		"version":"2.0"
	},
	"scene":0,
	"scenes":[
		{
			"name":"Scene",
			"nodes":[
				4,
				9
			]
		}
	],
	"nodes":[
		{
			"name":"Plane.004_Boat_0"
		},
		{
			"children":[
				0
			],
			"name":"Plane.004",
			"scale":[
				54.6236457824707,
				54.6236457824707,
				54.6236457824707
			],
			"translation":[
				-76.54956817626953,
				55.16108322143555,
				-551.7826538085938
			]
		},
		{
			"children":[
				1
			],
			"name":"RootNode"
		},
		{
			"children":[
				2
			],
			"name":"6080dc88ba8f42cd9c75f624eb77b0dd.fbx",
			"rotation":[
				0.70710688829422,
				0,
				0,
				0.7071066498756409
			]
		},
		{
			"children":[
				3
			],
			"name":"Sketchfab_model",
			"rotation":[
				-0.70710688829422,
				0,
				0,
				0.7071066498756409
			],
			"scale":[
				0.009999999776482582,
				0.010000000707805157,
				0.010000000707805157
			]
		},
		{
			"mesh":0,
			"name":"Plane.004_Boat_0.001"
		},
		{
			"children":[
				5
			],
			"name":"Plane.001",
			"scale":[
				54.6236457824707,
				54.6236457824707,
				54.6236457824707
			],
			"translation":[
				-76.54957580566406,
				55.16108322143555,
				-551.78271484375
			]
		},
		{
			"children":[
				6
			],
			"name":"RootNode.001"
		},
		{
			"children":[
				7
			],
			"name":"6080dc88ba8f42cd9c75f624eb77b0dd.fbx.001",
			"rotation":[
				0.70710688829422,
				0,
				0,
				0.7071066498756409
			]
		},
		{
			"children":[
				8
			],
			"name":"Sketchfab_model.001",
			"rotation":[
				-0.70710688829422,
				0,
				0,
				0.7071066498756409
			],
			"scale":[
				0.05000000074505806,
				0.05000000819563866,
				0.05000000819563866
			]
		}
	],
	"materials":[
		{
			"doubleSided":true,
			"name":"Boat.001",
			"normalTexture":{
				"index":0
			},
			"pbrMetallicRoughness":{
				"baseColorTexture":{
					"index":1
				},
				"metallicRoughnessTexture":{
					"index":2
				}
			}
		}
	],
	"meshes":[
		{
			"name":"Plane.004_Boat_0.001",
			"primitives":[
				{
					"attributes":{
						"POSITION":0,
						"NORMAL":1,
						"TEXCOORD_0":2
					},
					"indices":3,
					"material":0
				}
			]
		}
	],
	"textures":[
		{
			"sampler":0,
			"source":0
		},
		{
			"sampler":0,
			"source":1
		},
		{
			"sampler":0,
			"source":2
		}
	],
	"images":[
		{
			"mimeType":"image/png",
			"name":"Boat_normal",
			"uri":"Boat_normal.png"
		},
		{
			"mimeType":"image/png",
			"name":"Boat_baseColor",
			"uri":"Boat_baseColor.png"
		},
		{
			"mimeType":"image/png",
			"name":"Boat_metallicRoughness",
			"uri":"Boat_metallicRoughness.png"
		}
	],
	"accessors":[
		{
			"bufferView":0,
			"componentType":5126,
			"count":4463,
			"max":[
				38.34144973754883,
				118.67491149902344,
				14.18432903289795
			],
			"min":[
				-8.09080696105957,
				13.770747184753418,
				-99.64745330810547
			],
			"type":"VEC3"
		},
		{
			"bufferView":1,
			"componentType":5126,
			"count":4463,
			"type":"VEC3"
		},
		{
			"bufferView":2,
			"componentType":5126,
			"count":4463,
			"type":"VEC2"
		},
		{
			"bufferView":3,
			"componentType":5123,
			"count":21393,
			"type":"SCALAR"
		}
	],
	"bufferViews":[
		{
			"buffer":0,
			"byteLength":53556,
			"byteOffset":0,
			"target":34962
		},
		{
			"buffer":0,
			"byteLength":53556,
			"byteOffset":53556,
			"target":34962
		},
		{
			"buffer":0,
			"byteLength":35704,
			"byteOffset":107112,
			"target":34962
		},
		{
			"buffer":0,
			"byteLength":42786,
			"byteOffset":142816,
			"target":34963
		}
	],
	"samplers":[
		{
			"magFilter":9729,
			"minFilter":9987
		}
	],
	"buffers":[
		{
			"byteLength":185604,
			"uri":"sail11.bin"
		}
	]
}
