{
	"asset":{
		"generator":"Khronos glTF Blender I/O v4.2.57",
		"version":"2.0"
	},
	"scene":0,
	"scenes":[
		{
			"name":"Scene",
			"nodes":[
				4
			]
		}
	],
	"nodes":[
		{
			"mesh":0,
			"name":"Plane.004_Boat_0"
		},
		{
			"children":[
				0
			],
			"name":"Plane.004",
			"scale":[
				54.6236457824707,
				54.6236457824707,
				54.6236457824707
			],
			"translation":[
				-76.54956817626953,
				55.16108322143555,
				-551.7826538085938
			]
		},
		{
			"children":[
				1
			],
			"name":"RootNode"
		},
		{
			"children":[
				2
			],
			"name":"6080dc88ba8f42cd9c75f624eb77b0dd.fbx",
			"rotation":[
				0.70710688829422,
				0,
				0,
				0.7071066498756409
			]
		},
		{
			"children":[
				3
			],
			"name":"Sketchfab_model",
			"rotation":[
				-0.70710688829422,
				0,
				0,
				0.7071066498756409
			],
			"scale":[
				0.009999999776482582,
				0.010000000707805157,
				0.010000000707805157
			]
		}
	],
	"materials":[
		{
			"doubleSided":true,
			"name":"Boat",
			"normalTexture":{
				"index":0
			},
			"pbrMetallicRoughness":{
				"baseColorTexture":{
					"index":1
				},
				"metallicRoughnessTexture":{
					"index":2
				}
			}
		}
	],
	"meshes":[
		{
			"name":"Plane.004_Boat_0",
			"primitives":[
				{
					"attributes":{
						"POSITION":0,
						"NORMAL":1,
						"TEXCOORD_0":2
					},
					"indices":3,
					"material":0
				}
			]
		}
	],
	"textures":[
		{
			"sampler":0,
			"source":0
		},
		{
			"sampler":0,
			"source":1
		},
		{
			"sampler":0,
			"source":2
		}
	],
	"images":[
		{
			"mimeType":"image/png",
			"name":"Boat_normal",
			"uri":"Boat_normal.png"
		},
		{
			"mimeType":"image/png",
			"name":"Boat_baseColor",
			"uri":"Boat_baseColor.png"
		},
		{
			"mimeType":"image/png",
			"name":"Boat_metallicRoughness",
			"uri":"Boat_metallicRoughness.png"
		}
	],
	"accessors":[
		{
			"bufferView":0,
			"componentType":5126,
			"count":8097,
			"max":[
				30.810579299926758,
				132.63455200195312,
				26.33623504638672
			],
			"min":[
				-31.029409408569336,
				-14.638389587402344,
				-130.85850524902344
			],
			"type":"VEC3"
		},
		{
			"bufferView":1,
			"componentType":5126,
			"count":8097,
			"type":"VEC3"
		},
		{
			"bufferView":2,
			"componentType":5126,
			"count":8097,
			"type":"VEC2"
		},
		{
			"bufferView":3,
			"componentType":5123,
			"count":24291,
			"type":"SCALAR"
		}
	],
	"bufferViews":[
		{
			"buffer":0,
			"byteLength":97164,
			"byteOffset":0,
			"target":34962
		},
		{
			"buffer":0,
			"byteLength":97164,
			"byteOffset":97164,
			"target":34962
		},
		{
			"buffer":0,
			"byteLength":64776,
			"byteOffset":194328,
			"target":34962
		},
		{
			"buffer":0,
			"byteLength":48582,
			"byteOffset":259104,
			"target":34963
		}
	],
	"samplers":[
		{
			"magFilter":9729,
			"minFilter":9987
		}
	],
	"buffers":[
		{
			"byteLength":307688,
			"uri":"sail11.bin"
		}
	]
}
